<mxfile host="app.diagrams.net" modified="2023-03-13T11:58:38.188Z" agent="5.0 (Windows NT 10.0; Win64; x64) AppleWebKit/537.36 (KHTML, like Gecko) Chrome/110.0.0.0 Safari/537.36 Edg/110.0.1587.63" etag="aYPC9lACreJuSW-VrnfR" version="21.0.6" type="github">
  <diagram name="第 1 页" id="7IBz1Ru4UaJhS7CA6VLU">
    <mxGraphModel dx="1366" dy="836" grid="1" gridSize="10" guides="1" tooltips="1" connect="1" arrows="1" fold="1" page="1" pageScale="1" pageWidth="827" pageHeight="1169" math="0" shadow="0">
      <root>
        <mxCell id="0" />
        <mxCell id="1" parent="0" />
        <mxCell id="S0o7eQK9lR6dEnzU5vZ2-1" value="&lt;b&gt;&lt;font style=&quot;font-size: 17px;&quot;&gt;启动事务A&lt;/font&gt;&lt;/b&gt;" style="rounded=0;whiteSpace=wrap;html=1;fontSize=15;fillColor=#dae8fc;strokeColor=#6c8ebf;" vertex="1" parent="1">
          <mxGeometry x="100" y="160" width="150" height="40" as="geometry" />
        </mxCell>
        <mxCell id="S0o7eQK9lR6dEnzU5vZ2-2" value="&lt;b&gt;&lt;font style=&quot;font-size: 17px;&quot;&gt;启动事务B&lt;/font&gt;&lt;/b&gt;" style="rounded=0;whiteSpace=wrap;html=1;fontSize=15;fillColor=#dae8fc;strokeColor=#6c8ebf;" vertex="1" parent="1">
          <mxGeometry x="250" y="160" width="150" height="40" as="geometry" />
        </mxCell>
        <mxCell id="S0o7eQK9lR6dEnzU5vZ2-3" value="&lt;span style=&quot;font-size: 17px;&quot;&gt;&lt;b&gt;查询余额：100万&lt;/b&gt;&lt;/span&gt;" style="rounded=0;whiteSpace=wrap;html=1;fontSize=15;fillColor=#f5f5f5;strokeColor=#666666;fontColor=#333333;" vertex="1" parent="1">
          <mxGeometry x="100" y="200" width="150" height="40" as="geometry" />
        </mxCell>
        <mxCell id="S0o7eQK9lR6dEnzU5vZ2-4" value="&lt;span style=&quot;font-size: 17px;&quot;&gt;&lt;b&gt;查询余额：100万&lt;/b&gt;&lt;/span&gt;" style="rounded=0;whiteSpace=wrap;html=1;fontSize=15;fillColor=#e1d5e7;strokeColor=#9673a6;" vertex="1" parent="1">
          <mxGeometry x="250" y="240" width="150" height="40" as="geometry" />
        </mxCell>
        <mxCell id="S0o7eQK9lR6dEnzU5vZ2-5" value="" style="rounded=0;whiteSpace=wrap;html=1;fontSize=15;" vertex="1" parent="1">
          <mxGeometry x="250" y="200" width="150" height="40" as="geometry" />
        </mxCell>
        <mxCell id="S0o7eQK9lR6dEnzU5vZ2-6" value="&lt;span style=&quot;font-size: 17px;&quot;&gt;&lt;b&gt;余额改为200万&lt;/b&gt;&lt;/span&gt;" style="rounded=0;whiteSpace=wrap;html=1;fontSize=15;fillColor=#f8cecc;strokeColor=#b85450;" vertex="1" parent="1">
          <mxGeometry x="250" y="280" width="150" height="40" as="geometry" />
        </mxCell>
        <mxCell id="S0o7eQK9lR6dEnzU5vZ2-7" value="&lt;b style=&quot;border-color: var(--border-color); font-size: 17px;&quot;&gt;查询余额：V1&lt;/b&gt;" style="rounded=0;whiteSpace=wrap;html=1;fontSize=15;fillColor=#fff2cc;strokeColor=#d6b656;" vertex="1" parent="1">
          <mxGeometry x="100" y="320" width="150" height="40" as="geometry" />
        </mxCell>
        <mxCell id="S0o7eQK9lR6dEnzU5vZ2-8" value="&lt;b style=&quot;border-color: var(--border-color); font-size: 17px;&quot;&gt;提交事务B&lt;/b&gt;" style="rounded=0;whiteSpace=wrap;html=1;fontSize=15;fillColor=#f8cecc;strokeColor=#b85450;" vertex="1" parent="1">
          <mxGeometry x="250" y="360" width="150" height="40" as="geometry" />
        </mxCell>
        <mxCell id="S0o7eQK9lR6dEnzU5vZ2-9" value="" style="rounded=0;whiteSpace=wrap;html=1;fontSize=15;" vertex="1" parent="1">
          <mxGeometry x="100" y="240" width="150" height="40" as="geometry" />
        </mxCell>
        <mxCell id="S0o7eQK9lR6dEnzU5vZ2-10" value="" style="rounded=0;whiteSpace=wrap;html=1;fontSize=15;" vertex="1" parent="1">
          <mxGeometry x="100" y="280" width="150" height="40" as="geometry" />
        </mxCell>
        <mxCell id="S0o7eQK9lR6dEnzU5vZ2-11" value="" style="rounded=0;whiteSpace=wrap;html=1;fontSize=15;" vertex="1" parent="1">
          <mxGeometry x="250" y="320" width="150" height="40" as="geometry" />
        </mxCell>
        <mxCell id="S0o7eQK9lR6dEnzU5vZ2-12" value="" style="rounded=0;whiteSpace=wrap;html=1;fontSize=15;" vertex="1" parent="1">
          <mxGeometry x="100" y="360" width="150" height="40" as="geometry" />
        </mxCell>
        <mxCell id="S0o7eQK9lR6dEnzU5vZ2-13" value="&lt;b style=&quot;border-color: var(--border-color); font-size: 17px;&quot;&gt;查询余额：V2&lt;/b&gt;" style="rounded=0;whiteSpace=wrap;html=1;fontSize=15;fillColor=#fff2cc;strokeColor=#d6b656;" vertex="1" parent="1">
          <mxGeometry x="100" y="400" width="150" height="40" as="geometry" />
        </mxCell>
        <mxCell id="S0o7eQK9lR6dEnzU5vZ2-14" value="" style="rounded=0;whiteSpace=wrap;html=1;fontSize=15;" vertex="1" parent="1">
          <mxGeometry x="250" y="400" width="150" height="40" as="geometry" />
        </mxCell>
        <mxCell id="S0o7eQK9lR6dEnzU5vZ2-15" value="" style="rounded=0;whiteSpace=wrap;html=1;fontSize=15;" vertex="1" parent="1">
          <mxGeometry x="250" y="440" width="150" height="40" as="geometry" />
        </mxCell>
        <mxCell id="S0o7eQK9lR6dEnzU5vZ2-16" value="" style="rounded=0;whiteSpace=wrap;html=1;fontSize=15;" vertex="1" parent="1">
          <mxGeometry x="250" y="480" width="150" height="40" as="geometry" />
        </mxCell>
        <mxCell id="S0o7eQK9lR6dEnzU5vZ2-17" value="&lt;b style=&quot;border-color: var(--border-color); font-size: 17px;&quot;&gt;提交事务A&lt;/b&gt;" style="rounded=0;whiteSpace=wrap;html=1;fontSize=15;fillColor=#f8cecc;strokeColor=#b85450;" vertex="1" parent="1">
          <mxGeometry x="100" y="440" width="150" height="40" as="geometry" />
        </mxCell>
        <mxCell id="S0o7eQK9lR6dEnzU5vZ2-18" value="&lt;b style=&quot;border-color: var(--border-color); font-size: 17px;&quot;&gt;查询余额：V3&lt;/b&gt;" style="rounded=0;whiteSpace=wrap;html=1;fontSize=15;fillColor=#fff2cc;strokeColor=#d6b656;" vertex="1" parent="1">
          <mxGeometry x="100" y="480" width="150" height="40" as="geometry" />
        </mxCell>
      </root>
    </mxGraphModel>
  </diagram>
</mxfile>
